<svg width="70" height="97" viewBox="0 0 70 97" fill="none" xmlns="http://www.w3.org/2000/svg">
<path d="M69.4355 15.4752V93.1362C69.4355 94.9766 67.9193 96.478 66.0607 96.478H3.84605C1.98744 96.478 0.471191 94.9766 0.471191 93.1362V4.19045C0.471191 2.35003 1.98744 0.848633 3.84605 0.848633H54.64L69.4355 15.4752Z" fill="white"/>
<path d="M69.435 15.4752V93.1362C69.435 94.9766 67.9188 96.478 66.0601 96.478H61.2424C63.101 96.478 64.6173 94.9766 64.6173 93.1362V15.4752L49.8462 0.848633H54.6639L69.435 15.4752Z" fill="#E5E5E5"/>
<path d="M69.4352 15.4752H58.0145C56.1559 15.4752 54.6396 13.9738 54.6396 12.1333V0.848633L69.4352 15.4752Z" fill="#CECECE"/>
</svg>
