<svg width="65" height="91" viewBox="0 0 65 91" fill="none" xmlns="http://www.w3.org/2000/svg">
<path d="M65.0022 13.9185V87.8199C65.0022 89.5713 63.573 91 61.8212 91H3.18097C1.42914 91 0 89.5713 0 87.8199V3.18005C0 1.42872 1.42914 0 3.18097 0H51.0567L65.0022 13.9185Z" fill="white"/>
<path d="M65.002 13.9185V87.8199C65.002 89.5713 63.5728 91 61.821 91H57.2801C59.0319 91 60.461 89.5713 60.461 87.8199V13.9185L46.5386 0H51.0795L65.002 13.9185Z" fill="#E5E5E5"/>
<path d="M65.0021 13.9185H54.2376C52.4858 13.9185 51.0566 12.4897 51.0566 10.7384V0L65.0021 13.9185Z" fill="#CECECE"/>
<path d="M24 54L10 48.3733V45.6487L24 40V43.212L14.3094 47L24 50.788V54Z" fill="#B5B5B5"/>
<path d="M41 40L55 45.6487V48.3733L41 54V50.788L50.6906 47L41 43.212V40Z" fill="#B5B5B5"/>
<path d="M35.6796 38H39L30.3398 55H27L35.6796 38Z" fill="#B5B5B5"/>
</svg>
