<svg width="62" height="62" viewBox="0 0 62 62" fill="none" xmlns="http://www.w3.org/2000/svg">
<g filter="url(#filter0_d_455_500)">
<circle cx="31" cy="28" r="26" fill="#E6A4B4"/>
</g>
<path d="M38.1563 21.5729V21.5729C40.7896 21.5729 42.1063 21.5729 43.0521 22.2049C43.4616 22.4785 43.8132 22.8301 44.0868 23.2395C44.7188 24.1854 44.7188 25.5021 44.7188 28.1354L44.7188 35.9687C44.7188 38.781 44.7188 40.1872 44.0026 41.1729C43.7713 41.4913 43.4913 41.7713 43.1729 42.0026C42.1872 42.7187 40.7811 42.7187 37.9688 42.7187L30.1354 42.7187C28.8757 42.7187 28.2459 42.7187 27.7319 42.5689C26.5016 42.2103 25.5396 41.2484 25.1811 40.0181C25.0313 39.5041 25.0313 38.8743 25.0313 37.6146V37.6146L30.9563 37.6146C33.956 37.6146 35.4559 37.6146 36.5074 36.8507C36.847 36.6039 37.1456 36.3053 37.3923 35.9657C38.1563 34.9143 38.1563 33.4144 38.1563 30.4146L38.1563 21.5729Z" fill="white"/>
<path d="M35.9688 21.0313C35.9688 18.219 35.9688 16.8128 35.2526 15.8271C35.0213 15.5087 34.7413 15.2287 34.4229 14.9974C33.4372 14.2813 32.0311 14.2813 29.2188 14.2813L23.0313 14.2813C20.219 14.2813 18.8128 14.2813 17.8271 14.9974C17.5087 15.2287 17.2287 15.5087 16.9974 15.8271C16.2813 16.8128 16.2813 18.219 16.2813 21.0313L16.2813 28.6771C16.2813 31.4894 16.2813 32.8955 16.9974 33.8813C17.2287 34.1996 17.5087 34.4796 17.8271 34.7109C18.8128 35.4271 20.219 35.4271 23.0313 35.4271L31.0188 35.4271C33.0811 35.4271 34.1123 35.4271 34.8352 34.9019C35.0686 34.7323 35.2739 34.527 35.4435 34.2935C35.9688 33.5706 35.9688 32.5394 35.9688 30.4771L35.9688 21.0313Z" fill="white"/>
<defs>
<filter id="filter0_d_455_500" x="0" y="0" width="62" height="62" filterUnits="userSpaceOnUse" color-interpolation-filters="sRGB">
<feFlood flood-opacity="0" result="BackgroundImageFix"/>
<feColorMatrix in="SourceAlpha" type="matrix" values="0 0 0 0 0 0 0 0 0 0 0 0 0 0 0 0 0 0 127 0" result="hardAlpha"/>
<feOffset dy="3"/>
<feGaussianBlur stdDeviation="2.5"/>
<feComposite in2="hardAlpha" operator="out"/>
<feColorMatrix type="matrix" values="0 0 0 0 0 0 0 0 0 0 0 0 0 0 0 0 0 0 0.25 0"/>
<feBlend mode="normal" in2="BackgroundImageFix" result="effect1_dropShadow_455_500"/>
<feBlend mode="normal" in="SourceGraphic" in2="effect1_dropShadow_455_500" result="shape"/>
</filter>
</defs>
</svg>
