<svg width="145" height="143" viewBox="0 0 145 143" fill="none" xmlns="http://www.w3.org/2000/svg">
<path d="M131.068 64.8124C130.451 58.7325 126.136 53.2605 120.587 51.4366C120.587 49.6126 120.587 47.1806 119.971 44.7486C119.354 38.6687 114.422 33.1968 108.257 31.9808C108.257 30.7648 108.257 28.9408 107.641 27.1168C107.024 19.2129 100.243 13.133 92.2283 12.525C86.6798 12.525 78.6654 11.917 72.5004 11.917C66.3354 11.917 58.321 12.525 52.7725 12.525C44.7581 13.133 37.9766 19.2129 37.3601 27.1168C37.3601 28.9408 37.3601 30.1568 36.7436 31.9808C30.5786 33.8047 25.6467 38.6687 25.0302 44.7486C25.0302 47.1806 24.4137 49.6126 24.4137 51.4366C18.8652 53.2605 15.1662 58.7325 13.9332 64.8124C13.3167 72.1083 12.0837 81.8362 12.0837 89.7401C12.0837 97.644 13.3167 107.372 13.9332 114.668C14.5497 122.572 21.3312 128.652 29.3456 129.26C41.6756 129.868 58.9375 131.084 72.5004 131.084C86.0633 131.084 103.325 129.868 115.655 129.26C123.67 128.652 130.451 122.572 131.068 114.668C131.684 107.372 132.917 97.644 132.917 89.7401C132.917 81.8362 131.684 72.1083 131.068 64.8124ZM53.389 22.2529C58.9375 22.2529 66.3354 21.6449 72.5004 21.6449C78.6654 21.6449 86.0633 22.2529 91.6118 22.2529C95.3108 22.2529 97.7768 25.2928 98.3933 28.3328C98.3933 29.5488 98.3933 30.1568 98.3933 31.3728C90.3788 31.3728 80.5149 30.7648 72.5004 30.7648C64.486 30.7648 54.622 30.7648 46.6076 31.3728C46.6076 30.1568 46.6076 29.5488 46.6076 28.3328C47.2241 24.6849 49.69 22.2529 53.389 22.2529ZM84.8304 94.6041H77.4324V101.9C77.4324 104.332 75.5829 106.764 72.5004 106.764C69.4179 106.764 67.5684 104.94 67.5684 101.9V94.6041H60.1705C57.7045 94.6041 55.2385 92.7801 55.2385 89.7401C55.2385 86.7002 57.088 84.8762 60.1705 84.8762H67.5684V77.5803C67.5684 75.1483 69.4179 72.7163 72.5004 72.7163C75.5829 72.7163 77.4324 74.5403 77.4324 77.5803V84.8762H84.8304C87.2963 84.8762 89.7623 86.7002 89.7623 89.7401C89.7623 92.7801 87.2963 94.6041 84.8304 94.6041ZM72.5004 48.3966C60.787 48.3966 45.9911 49.0046 34.2776 49.6126C34.2776 48.3966 34.2776 47.1806 34.8941 45.3566C35.5106 42.3167 37.9766 39.8847 41.6756 39.8847C50.923 39.2767 63.253 39.2767 73.1169 39.2767C82.9809 39.2767 95.3108 39.8847 104.558 39.8847C108.257 39.8847 110.723 42.3167 111.34 45.3566C111.34 46.5726 111.956 48.3966 111.956 49.6126C99.0098 49.6126 84.2139 48.3966 72.5004 48.3966Z" fill="white"/>
</svg>
