<svg width="84" height="84" viewBox="0 0 84 84" fill="none" xmlns="http://www.w3.org/2000/svg">
<path d="M42.0002 41.2857C51.5165 41.2857 59.231 33.6106 59.231 24.1429C59.231 14.6751 51.5165 7 42.0002 7C32.484 7 24.7695 14.6751 24.7695 24.1429C24.7695 33.6106 32.484 41.2857 42.0002 41.2857Z" fill="#7C7C7C"/>
<path d="M50.9746 48.4289H33.0259C22.6156 48.4289 14.0002 57.0004 14.0002 67.3575C14.0002 69.8575 15.0772 72.0004 17.231 73.0718C20.4618 74.8575 27.6413 77.0004 42.0002 77.0004C56.3592 77.0004 63.5387 74.8575 66.7695 73.0718C68.5643 72.0004 70.0002 69.8575 70.0002 67.3575C70.0002 56.6432 61.3849 48.4289 50.9746 48.4289Z" fill="#7C7C7C"/>
</svg>
