<svg width="125" height="142" viewBox="0 0 125 142" fill="none" xmlns="http://www.w3.org/2000/svg">
<path d="M105.017 24.2168L78.4437 12.8436C73.6606 11.0478 68.8774 11.6464 65.1572 14.6394C63.5628 15.8366 62.4998 17.0337 61.4369 18.2309H41.2413C33.2694 18.2309 26.3604 26.0125 26.3604 34.9914V40.9772C26.3604 43.3716 27.9548 45.7659 30.6121 45.7659C33.2694 45.7659 34.8638 43.3716 34.8638 40.9772V34.9914C34.8638 30.8012 38.0526 27.8083 41.2413 27.8083H58.7796V114.604H41.2413C37.5211 114.604 34.8638 111.012 34.8638 107.42V101.435C34.8638 99.0403 33.2694 96.6459 30.6121 96.6459C27.9548 96.6459 26.3604 98.4417 26.3604 100.836V106.822C26.3604 115.801 32.7379 123.582 41.2413 123.582H61.4369C62.4998 124.78 63.5628 126.575 64.6257 127.174C67.283 128.97 69.9403 130.167 73.1291 130.167C74.7235 130.167 76.8493 129.568 78.4437 128.97L105.017 117.596C110.863 115.202 114.583 109.216 114.583 102.033V39.1815C114.583 32.597 110.331 26.0125 105.017 24.2168Z" fill="white"/>
<path d="M33.2694 79.8854C31.675 81.6812 31.675 84.6741 33.2694 86.4699C33.8009 87.0685 34.8638 87.6671 35.9267 87.6671C36.9896 87.6671 38.0526 87.0685 38.584 86.4699L49.2133 74.4982C49.7447 73.8996 49.7447 73.301 50.2762 73.301C50.2762 72.7024 50.8077 72.1038 50.8077 71.5052C50.8077 70.9066 50.8077 70.308 50.2762 69.7095C50.2762 69.1109 49.7447 68.5123 49.2133 68.5123L38.584 56.5405C36.9896 54.7448 34.3323 54.7448 32.7379 56.5405C31.1435 58.3363 31.1435 61.3292 32.7379 63.125L36.4582 67.3151H14.6682C12.5424 67.3151 10.4165 69.1109 10.4165 72.1038C10.4165 75.0967 12.0109 76.8925 14.6682 76.8925H36.9896L33.2694 79.8854Z" fill="white"/>
</svg>
