<svg width="49" height="51" viewBox="0 0 49 51" fill="none" xmlns="http://www.w3.org/2000/svg">
<g filter="url(#filter0_d_295_793)">
<path d="M18.136 8.40547C20.7875 5.75401 22.1132 4.42827 23.7178 4.17413C24.236 4.09205 24.764 4.09205 25.2822 4.17413C26.8868 4.42827 28.2125 5.754 30.864 8.40546L40.239 17.7805C41.3933 18.9348 41.9705 19.512 42.33 20.2176C42.4489 20.451 42.5493 20.6934 42.6303 20.9425C42.875 21.6956 42.875 22.5119 42.875 24.1444V37.4748C42.875 39.7247 42.875 40.8496 42.3021 41.6382C42.117 41.8929 41.893 42.1168 41.6384 42.3019C40.8498 42.8748 39.7248 42.8748 37.475 42.8748H36.025C33.7752 42.8748 32.6502 42.8748 31.8616 42.3019C31.607 42.1168 31.383 41.8929 31.198 41.6382C30.625 40.8496 30.625 39.7247 30.625 37.4748V33.9832C30.625 31.7333 30.625 30.6084 30.0521 29.8198C29.867 29.5651 29.643 29.3412 29.3884 29.1561C28.5998 28.5832 27.4748 28.5832 25.225 28.5832H23.775C21.5252 28.5832 20.4002 28.5832 19.6116 29.1561C19.357 29.3412 19.133 29.5651 18.9479 29.8198C18.375 30.6084 18.375 31.7333 18.375 33.9832V37.4748C18.375 39.7247 18.375 40.8496 17.8021 41.6382C17.617 41.8929 17.393 42.1168 17.1384 42.3019C16.3498 42.8748 15.2248 42.8748 12.975 42.8748H11.525C9.27516 42.8748 8.15024 42.8748 7.36164 42.3019C7.10696 42.1168 6.88299 41.8929 6.69795 41.6382C6.125 40.8496 6.125 39.7247 6.125 37.4748V24.1444C6.125 22.5119 6.125 21.6956 6.36972 20.9425C6.45066 20.6934 6.55105 20.451 6.66997 20.2176C7.02949 19.512 7.60667 18.9348 8.76104 17.7805L18.136 8.40547Z" fill="white"/>
</g>
<defs>
<filter id="filter0_d_295_793" x="1.125" y="2.11279" width="46.75" height="48.7622" filterUnits="userSpaceOnUse" color-interpolation-filters="sRGB">
<feFlood flood-opacity="0" result="BackgroundImageFix"/>
<feColorMatrix in="SourceAlpha" type="matrix" values="0 0 0 0 0 0 0 0 0 0 0 0 0 0 0 0 0 0 127 0" result="hardAlpha"/>
<feOffset dy="3"/>
<feGaussianBlur stdDeviation="2.5"/>
<feComposite in2="hardAlpha" operator="out"/>
<feColorMatrix type="matrix" values="0 0 0 0 0 0 0 0 0 0 0 0 0 0 0 0 0 0 0.25 0"/>
<feBlend mode="normal" in2="BackgroundImageFix" result="effect1_dropShadow_295_793"/>
<feBlend mode="normal" in="SourceGraphic" in2="effect1_dropShadow_295_793" result="shape"/>
</filter>
</defs>
</svg>
