<svg width="75" height="97" viewBox="0 0 75 97" fill="none" xmlns="http://www.w3.org/2000/svg">
<path d="M35.998 31.4847V31.7268C35.998 32.7439 35.1665 33.5915 34.1149 33.5915H0.244141V20.0062C0.244141 18.9892 1.07561 18.1416 2.1272 18.1416H3.08096V22.9848C3.08096 27.6827 6.92047 31.5089 11.6893 31.5089H35.998V31.4847Z" fill="#DD4E43"/>
<path d="M0.244141 33.5908L5.91779 39.9839V33.5908H0.244141Z" fill="#DB1B1B"/>
<path d="M74.8823 15.5269V93.1879C74.8823 95.0284 73.3661 96.5298 71.5074 96.5298H9.29283C7.43422 96.5298 5.91797 95.0284 5.91797 93.1879V4.24221C5.91797 2.40179 7.43422 0.900391 9.29283 0.900391H60.0868L74.8823 15.5269Z" fill="white"/>
<path d="M74.882 15.5269V93.1879C74.882 95.0284 73.3658 96.5298 71.5072 96.5298H66.6894C68.5481 96.5298 70.0643 95.0284 70.0643 93.1879V15.5269L55.2932 0.900391H60.1109L74.882 15.5269Z" fill="#E5E5E5"/>
<path d="M74.8825 15.5269H63.4618C61.6032 15.5269 60.0869 14.0255 60.0869 12.1851V0.900391L74.8825 15.5269Z" fill="#CECECE"/>
<path d="M60.6246 46.184H20.5666C19.2216 46.184 18.1211 45.0943 18.1211 43.7624C18.1211 42.4305 19.2216 41.3408 20.5666 41.3408H60.6246C61.9697 41.3408 63.0702 42.4305 63.0702 43.7624C63.0702 45.1185 61.9941 46.184 60.6246 46.184Z" fill="#CECECE"/>
<path d="M60.6246 58.6059H20.5666C19.2216 58.6059 18.1211 57.5162 18.1211 56.1843C18.1211 54.8524 19.2216 53.7627 20.5666 53.7627H60.6246C61.9697 53.7627 63.0702 54.8524 63.0702 56.1843C63.0702 57.5404 61.9941 58.6059 60.6246 58.6059Z" fill="#CECECE"/>
<path d="M60.6246 71.0297H20.5666C19.2216 71.0297 18.1211 69.94 18.1211 68.6081C18.1211 67.2762 19.2216 66.1865 20.5666 66.1865H60.6246C61.9697 66.1865 63.0702 67.2762 63.0702 68.6081C63.0702 69.9642 61.9941 71.0297 60.6246 71.0297Z" fill="#CECECE"/>
<path d="M34.1149 33.5924H0.244141V20.0072C0.244141 18.9901 1.07561 18.1426 2.1272 18.1426H34.1149C35.142 18.1426 35.998 18.9659 35.998 20.0072V31.7278C35.998 32.7449 35.1665 33.5924 34.1149 33.5924Z" fill="#F55B4B"/>
<path d="M9.41515 28.797V30.4195H4.30396V28.797H5.55118V22.4281H4.30396V20.8057H9.41515C10.6135 20.8057 11.5183 21.072 12.1786 21.629C12.8389 22.186 13.1568 22.9367 13.1568 23.8569C13.1568 24.3896 13.0345 24.874 12.8144 25.3099C12.5943 25.7457 12.3009 26.0848 11.9341 26.3027C11.5672 26.5449 11.1759 26.6902 10.7113 26.787C10.2466 26.8839 9.68415 26.9081 8.9994 26.9081H8.0701V28.7728H9.41515V28.797ZM8.0701 25.3099H8.43693C9.29287 25.3099 9.85534 25.1646 10.0999 24.8982C10.3445 24.6318 10.4667 24.2686 10.4667 23.8569C10.4667 23.5179 10.3689 23.2031 10.1977 22.9609C10.0265 22.7187 9.83089 22.5734 9.61079 22.5008C9.39069 22.4524 9.02386 22.4039 8.51029 22.4039H8.04563V25.3099H8.0701Z" fill="white"/>
<path d="M13.7437 30.4195V28.797H15.211V22.4281H13.7437V20.8057H18.3413C19.3195 20.8057 20.0776 20.8541 20.689 20.9752C21.2759 21.0963 21.8384 21.3626 22.3764 21.7501C22.9145 22.1618 23.3546 22.6945 23.6726 23.3726C23.9905 24.0506 24.1617 24.8013 24.1617 25.6247C24.1617 26.3027 24.0394 26.9323 23.8193 27.5377C23.5992 28.1431 23.3057 28.6275 22.9634 29.0149C22.621 29.3782 22.2297 29.693 21.7406 29.9109C21.2759 30.1289 20.8357 30.2742 20.4444 30.3468C20.0532 30.4195 19.4418 30.4437 18.6103 30.4437H13.7437V30.4195ZM17.7543 28.797H18.3657C19.0994 28.797 19.6863 28.7001 20.1265 28.5064C20.5667 28.3127 20.9091 27.9736 21.1537 27.5135C21.4227 27.0292 21.5449 26.4238 21.5449 25.6489C21.5449 24.9224 21.4227 24.2928 21.1537 23.7842C20.8847 23.2757 20.5423 22.9125 20.0776 22.7187C19.6374 22.525 19.0505 22.4281 18.3657 22.4281H17.7543V28.797Z" fill="white"/>
<path d="M25.2861 30.4195V28.797H26.6801V22.4281H25.2861V20.8057H33.9923V23.7842H32.1337V22.4524H29.2235V24.6802H31.3266V26.3027H29.2235V28.797H30.7152V30.4195H25.2861Z" fill="white"/>
<path d="M30.3976 38.096H5.94214V33.5918H34.2371V34.3183C34.2126 36.4009 32.5007 38.096 30.3976 38.096Z" fill="#E5E5E5"/>
</svg>
