<svg width="27" height="26" viewBox="0 0 31 26" fill="none" xmlns="http://www.w3.org/2000/svg">
<path d="M12.4819 21.856V21.856C11.9274 23.3848 13.0597 25 14.6859 25H24.5807C27.1557 25 28.4432 25 29.1696 24.2991C29.4004 24.0764 29.5863 23.8113 29.7169 23.5183C30.1281 22.5964 29.6851 21.375 28.7989 18.9322V18.9322C28.0557 16.8833 27.6841 15.8589 26.9427 15.1904C26.7002 14.9718 26.4319 14.7837 26.1437 14.6303C25.2625 14.1613 24.182 14.1613 22.021 14.1613H19.3229C18.8195 14.1613 18.5678 14.1613 18.3192 14.1925C18.2365 14.203 18.1541 14.2159 18.0721 14.2315C17.826 14.2782 17.5865 14.3557 17.1076 14.5106L16.9906 14.5484M9.95036 7.19355C8.28004 7.19355 6.92597 5.80708 6.92597 4.09677C6.92597 2.38647 8.28004 1 9.95036 1C11.6207 1 12.9748 2.38647 12.9748 4.09677C12.9748 5.80708 11.6207 7.19355 9.95036 7.19355ZM21.2918 10.2903C19.6215 10.2903 18.2674 8.90385 18.2674 7.19355C18.2674 5.48325 19.6215 4.09677 21.2918 4.09677C22.9621 4.09677 24.3162 5.48325 24.3162 7.19355C24.3162 8.90385 22.9621 10.2903 21.2918 10.2903ZM6.41928 21.9032H13.2393C15.8142 21.9032 17.1017 21.9032 17.8281 21.2023C18.059 20.9796 18.2448 20.7145 18.3755 20.4215C18.7866 19.4996 18.3436 18.2782 17.4575 15.8354V15.8354C16.7142 13.7865 16.3426 12.7621 15.6012 12.0937C15.3587 11.8751 15.0904 11.6869 14.8022 11.5335C13.921 11.0645 12.8405 11.0645 10.6795 11.0645H8.979C6.81802 11.0645 5.73753 11.0645 4.85635 11.5335C4.56814 11.6869 4.2998 11.8751 4.05731 12.0937C3.31591 12.7621 2.9443 13.7865 2.20107 15.8354V15.8354C1.31495 18.2782 0.87189 19.4996 1.28306 20.4215C1.41373 20.7145 1.59955 20.9796 1.8304 21.2023C2.55683 21.9032 3.84431 21.9032 6.41928 21.9032Z" stroke="white" stroke-width="1.5" stroke-linejoin="round"/>
</svg>
